PathFileType	4	(X/Y/Z)	markers.trc
DataRate	CameraRate	NumFrames	NumMarkers	Units	OrigDataRate	OrigDataStartFrame	OrigNumFrames
30	30	4	70	mm	30	226	450
Frame#	Time	nose			left-eye			right-eye			left-ear			right-ear			left-shoulder			right-shoulder			left-elbow			right-elbow			left-hip			right-hip			left-knee			right-knee			left-ankle			right-ankle			left-big-toe-tip			left-small-toe-tip			left-heel			right-big-toe-tip			right-small-toe-tip			right-heel			right-thumb-tip			right-thumb-first-joint			right-thumb-second-joint			right-thumb-third-joint			right-index-tip			right-index-first-joint			right-index-second-joint			right-index-third-joint			right-middle-tip			right-middle-first-joint			right-middle-second-joint			right-middle-third-joint			right-ring-tip			right-ring-first-joint			right-ring-second-joint			right-ring-third-joint			right-pinky-tip			right-pinky-first-joint			right-pinky-second-joint			right-pinky-third-joint			right-wrist			left-thumb-tip			left-thumb-first-joint			left-thumb-second-joint			left-thumb-third-joint			left-index-tip			left-index-first-joint			left-index-second-joint			left-index-third-joint			left-middle-tip			left-middle-first-joint			left-middle-second-joint			left-middle-third-joint			left-ring-tip			left-ring-first-joint			left-ring-second-joint			left-ring-third-joint			left-pinky-tip			left-pinky-first-joint			left-pinky-second-joint			left-pinky-third-joint			left-wrist			left-olecranon			right-olecranon			left-cubital-fossa			right-cubital-fossa			left-acromion			right-acromion			neck			
		X1	Y1	Z1	X2	Y2	Z2	X3	Y3	Z3	X4	Y4	Z4	X5	Y5	Z5	X6	Y6	Z6	X7	Y7	Z7	X8	Y8	Z8	X9	Y9	Z9	X10	Y10	Z10	X11	Y11	Z11	X12	Y12	Z12	X13	Y13	Z13	X14	Y14	Z14	X15	Y15	Z15	X16	Y16	Z16	X17	Y17	Z17	X18	Y18	Z18	X19	Y19	Z19	X20	Y20	Z20	X21	Y21	Z21	X22	Y22	Z22	X23	Y23	Z23	X24	Y24	Z24	X25	Y25	Z25	X26	Y26	Z26	X27	Y27	Z27	X28	Y28	Z28	X29	Y29	Z29	X30	Y30	Z30	X31	Y31	Z31	X32	Y32	Z32	X33	Y33	Z33	X34	Y34	Z34	X35	Y35	Z35	X36	Y36	Z36	X37	Y37	Z37	X38	Y38	Z38	X39	Y39	Z39	X40	Y40	Z40	X41	Y41	Z41	X42	Y42	Z42	X43	Y43	Z43	X44	Y44	Z44	X45	Y45	Z45	X46	Y46	Z46	X47	Y47	Z47	X48	Y48	Z48	X49	Y49	Z49	X50	Y50	Z50	X51	Y51	Z51	X52	Y52	Z52	X53	Y53	Z53	X54	Y54	Z54	X55	Y55	Z55	X56	Y56	Z56	X57	Y57	Z57	X58	Y58	Z58	X59	Y59	Z59	X60	Y60	Z60	X61	Y61	Z61	X62	Y62	Z62	X63	Y63	Z63	X64	Y64	Z64	X65	Y65	Z65	X66	Y66	Z66	X67	Y67	Z67	X68	Y68	Z68	X69	Y69	Z69	X70	Y70	Z70	

226	7.500000	0.00000	-392.00000	2600.00000	-20.80000	-412.80000	2600.00000	20.80000	-412.80000	2600.00000	-48.00000	-393.60000	2600.00000	48.00000	-393.60000	2600.00000	-88.00000	-312.00000	2600.00000	88.00000	-312.00000	2600.00000	-88.00000	-168.00000	2600.00000	88.00000	-168.00000	2600.00000	-51.20000	0.00000	2600.00000	51.20000	0.00000	2600.00000	-51.20000	184.00000	2600.00000	51.20000	184.00000	2600.00000	-51.20000	360.00000	2600.00000	51.20000	360.00000	2600.00000	-51.20000	387.20000	2600.00000	-70.40000	387.20000	2600.00000	-51.20000	384.00000	2600.00000	51.20000	387.20000	2600.00000	70.40000	387.20000	2600.00000	51.20000	384.00000	2600.00000	0.00000	0.00000	2600.00000	0.00000	0.00000	2600.00000	0.00000	0.00000	2600.00000	0.00000	0.00000	2600.00000	0.00000	0.00000	2600.00000	0.00000	0.00000	2600.00000	0.00000	0.00000	2600.00000	0.00000	0.00000	2600.00000	0.00000	0.00000	2600.00000	0.00000	0.00000	2600.00000	0.00000	0.00000	2600.00000	0.00000	0.00000	2600.00000	0.00000	0.00000	2600.00000	0.00000	0.00000	2600.00000	0.00000	0.00000	2600.00000	0.00000	0.00000	2600.00000	0.00000	0.00000	2600.00000	0.00000	0.00000	2600.00000	0.00000	0.00000	2600.00000	0.00000	0.00000	2600.00000	88.00000	-48.00000	2600.00000	0.00000	0.00000	2600.00000	0.00000	0.00000	2600.00000	0.00000	0.00000	2600.00000	0.00000	0.00000	2600.00000	0.00000	0.00000	2600.00000	0.00000	0.00000	2600.00000	0.00000	0.00000	2600.00000	0.00000	0.00000	2600.00000	0.00000	0.00000	2600.00000	0.00000	0.00000	2600.00000	0.00000	0.00000	2600.00000	0.00000	0.00000	2600.00000	0.00000	0.00000	2600.00000	0.00000	0.00000	2600.00000	0.00000	0.00000	2600.00000	0.00000	0.00000	2600.00000	0.00000	0.00000	2600.00000	0.00000	0.00000	2600.00000	0.00000	0.00000	2600.00000	0.00000	0.00000	2600.00000	-88.00000	-48.00000	2600.00000	0.00000	0.00000	2600.00000	0.00000	0.00000	2600.00000	0.00000	0.00000	2600.00000	0.00000	0.00000	2600.00000	0.00000	0.00000	2600.00000	0.00000	0.00000	2600.00000	0.00000	-328.00000	2600.00000
227	7.533333	0.00000	-392.00000	2590.97400	-20.80000	-412.80000	2590.97400	20.80000	-412.80000	2590.97400	-48.00000	-393.60000	2590.97400	48.00000	-393.60000	2590.97400	-88.00000	-312.00000	2590.97400	88.00000	-312.00000	2590.97400	-96.66500	-168.00000	2590.97400	96.66500	-168.00000	2590.97400	-51.20000	0.00000	2590.97400	51.20000	0.00000	2590.97400	-38.20300	179.66800	2590.97400	38.20300	184.00000	2590.97400	-23.76100	352.77900	2590.97400	23.76100	360.00000	2590.97400	-17.98400	379.97900	2590.97400	-37.18400	379.97900	2590.97400	-26.64900	376.77900	2590.97400	17.98400	387.20000	2590.97400	37.18400	387.20000	2590.97400	26.64900	384.00000	2590.97400	0.00000	0.00000	2600.00000	0.00000	0.00000	2600.00000	0.00000	0.00000	2600.00000	0.00000	0.00000	2600.00000	0.00000	0.00000	2600.00000	0.00000	0.00000	2600.00000	0.00000	0.00000	2600.00000	0.00000	0.00000	2600.00000	0.00000	0.00000	2600.00000	0.00000	0.00000	2600.00000	0.00000	0.00000	2600.00000	0.00000	0.00000	2600.00000	0.00000	0.00000	2600.00000	0.00000	0.00000	2600.00000	0.00000	0.00000	2600.00000	0.00000	0.00000	2600.00000	0.00000	0.00000	2600.00000	0.00000	0.00000	2600.00000	0.00000	0.00000	2600.00000	0.00000	0.00000	2600.00000	106.77400	-45.11200	2590.97400	0.00000	0.00000	2600.00000	0.00000	0.00000	2600.00000	0.00000	0.00000	2600.00000	0.00000	0.00000	2600.00000	0.00000	0.00000	2600.00000	0.00000	0.00000	2600.00000	0.00000	0.00000	2600.00000	0.00000	0.00000	2600.00000	0.00000	0.00000	2600.00000	0.00000	0.00000	2600.00000	0.00000	0.00000	2600.00000	0.00000	0.00000	2600.00000	0.00000	0.00000	2600.00000	0.00000	0.00000	2600.00000	0.00000	0.00000	2600.00000	0.00000	0.00000	2600.00000	0.00000	0.00000	2600.00000	0.00000	0.00000	2600.00000	0.00000	0.00000	2600.00000	0.00000	0.00000	2600.00000	-106.77400	-45.11200	2590.97400	0.00000	0.00000	2600.00000	0.00000	0.00000	2600.00000	0.00000	0.00000	2600.00000	0.00000	0.00000	2600.00000	0.00000	0.00000	2600.00000	0.00000	0.00000	2600.00000	0.00000	-328.00000	2590.97400
228	7.566667	0.00000	-392.00000	2582.24500	-20.80000	-412.80000	2582.24500	20.80000	-412.80000	2582.24500	-48.00000	-393.60000	2582.24500	48.00000	-393.60000	2582.24500	-88.00000	-312.00000	2582.24500	88.00000	-312.00000	2582.24500	-105.04500	-168.00000	2582.24500	105.04500	-168.00000	2582.24500	-51.20000	0.00000	2582.24500	51.20000	0.00000	2582.24500	-25.63200	175.47700	2582.24500	25.63200	184.00000	2582.24500	2.77600	345.79600	2582.24500	-2.77600	360.00000	2582.24500	14.14000	372.99600	2582.24500	-5.06000	372.99600	2582.24500	-2.90500	369.79600	2582.24500	-14.14000	387.20000	2582.24500	5.06000	387.20000	2582.24500	2.90500	384.00000	2582.24500	0.00000	0.00000	2600.00000	0.00000	0.00000	2600.00000	0.00000	0.00000	2600.00000	0.00000	0.00000	2600.00000	0.00000	0.00000	2600.00000	0.00000	0.00000	2600.00000	0.00000	0.00000	2600.00000	0.00000	0.00000	2600.00000	0.00000	0.00000	2600.00000	0.00000	0.00000	2600.00000	0.00000	0.00000	2600.00000	0.00000	0.00000	2600.00000	0.00000	0.00000	2600.00000	0.00000	0.00000	2600.00000	0.00000	0.00000	2600.00000	0.00000	0.00000	2600.00000	0.00000	0.00000	2600.00000	0.00000	0.00000	2600.00000	0.00000	0.00000	2600.00000	0.00000	0.00000	2600.00000	124.93100	-42.31800	2582.24500	0.00000	0.00000	2600.00000	0.00000	0.00000	2600.00000	0.00000	0.00000	2600.00000	0.00000	0.00000	2600.00000	0.00000	0.00000	2600.00000	0.00000	0.00000	2600.00000	0.00000	0.00000	2600.00000	0.00000	0.00000	2600.00000	0.00000	0.00000	2600.00000	0.00000	0.00000	2600.00000	0.00000	0.00000	2600.00000	0.00000	0.00000	2600.00000	0.00000	0.00000	2600.00000	0.00000	0.00000	2600.00000	0.00000	0.00000	2600.00000	0.00000	0.00000	2600.00000	0.00000	0.00000	2600.00000	0.00000	0.00000	2600.00000	0.00000	0.00000	2600.00000	0.00000	0.00000	2600.00000	-124.93100	-42.31800	2582.24500	0.00000	0.00000	2600.00000	0.00000	0.00000	2600.00000	0.00000	0.00000	2600.00000	0.00000	0.00000	2600.00000	0.00000	0.00000	2600.00000	0.00000	0.00000	2600.00000	0.00000	-328.00000	2582.24500
229	7.600000	0.00000	-392.00000	2574.09900	-20.80000	-412.80000	2574.09900	20.80000	-412.80000	2574.09900	-48.00000	-393.60000	2574.09900	48.00000	-393.60000	2574.09900	-88.00000	-312.00000	2574.09900	88.00000	-312.00000	2574.09900	-112.86500	-168.00000	2574.09900	112.86500	-168.00000	2574.09900	-51.20000	0.00000	2574.09900	51.20000	0.00000	2574.09900	-13.90200	171.56700	2574.09900	13.90200	184.00000	2574.09900	27.54000	339.27900	2574.09900	-27.54000	360.00000	2574.09900	44.11700	366.47900	2574.09900	24.91700	366.47900	2574.09900	19.25200	363.27900	2574.09900	-44.11700	387.20000	2574.09900	-24.91700	387.20000	2574.09900	-19.25200	384.00000	2574.09900	0.00000	0.00000	2600.00000	0.00000	0.00000	2600.00000	0.00000	0.00000	2600.00000	0.00000	0.00000	2600.00000	0.00000	0.00000	2600.00000	0.00000	0.00000	2600.00000	0.00000	0.00000	2600.00000	0.00000	0.00000	2600.00000	0.00000	0.00000	2600.00000	0.00000	0.00000	2600.00000	0.00000	0.00000	2600.00000	0.00000	0.00000	2600.00000	0.00000	0.00000	2600.00000	0.00000	0.00000	2600.00000	0.00000	0.00000	2600.00000	0.00000	0.00000	2600.00000	0.00000	0.00000	2600.00000	0.00000	0.00000	2600.00000	0.00000	0.00000	2600.00000	0.00000	0.00000	2600.00000	141.87500	-39.71200	2574.09900	0.00000	0.00000	2600.00000	0.00000	0.00000	2600.00000	0.00000	0.00000	2600.00000	0.00000	0.00000	2600.00000	0.00000	0.00000	2600.00000	0.00000	0.00000	2600.00000	0.00000	0.00000	2600.00000	0.00000	0.00000	2600.00000	0.00000	0.00000	2600.00000	0.00000	0.00000	2600.00000	0.00000	0.00000	2600.00000	0.00000	0.00000	2600.00000	0.00000	0.00000	2600.00000	0.00000	0.00000	2600.00000	0.00000	0.00000	2600.00000	0.00000	0.00000	2600.00000	0.00000	0.00000	2600.00000	0.00000	0.00000	2600.00000	0.00000	0.00000	2600.00000	0.00000	0.00000	2600.00000	-141.87500	-39.71200	2574.09900	0.00000	0.00000	2600.00000	0.00000	0.00000	2600.00000	0.00000	0.00000	2600.00000	0.00000	0.00000	2600.00000	0.00000	0.00000	2600.00000	0.00000	0.00000	2600.00000	0.00000	-328.00000	2574.09900
